<?xml version="1.0"?>
<svg xmlns="http://www.w3.org/2000/svg" xmlns:xlink="http://www.w3.org/1999/xlink" xmlns:svgjs="http://svgjs.com/svgjs" version="1.1" width="512" height="512" x="0" y="0" viewBox="0 0 511.862 511.862" style="enable-background:new 0 0 512 512" xml:space="preserve" class=""><g><g xmlns="http://www.w3.org/2000/svg"><g><g><path d="m0 31.927h511.862v448.008h-511.862z" fill="#090909" data-original="#ffdd00" style="" class=""/><path d="m470.666 31.927h41.196v448.008h-41.196z" fill="#090909" data-original="#f7d200" style="" class=""/><path d="m0 31.927h511.862v58.876h-511.862z" fill="#090909" data-original="#7b7b7f" style="" class=""/><path d="m470.666 31.927h41.196v58.876h-41.196z" fill="#101010" data-original="#6b6b73" style="" class=""/></g><g><path d="m342.202 148.546-273.198.756v272.443z" fill="#6eff62" data-original="#ff7de9" style="" class=""/><path d="m300.892 148.661-231.888 231.888v41.196l273.198-273.199z" fill="#90ff5e" data-original="#ff5ee4" style="" class=""/><g fill="#fff"><path d="m450.583 216.795c0-4.266-3.458-7.724-7.724-7.724h-207.762c-4.266 0-7.724 3.458-7.724 7.724s3.458 7.724 7.724 7.724h207.761c4.267 0 7.725-3.458 7.725-7.724z" fill="#ffffff" data-original="#ffffff" style=""/><path d="m442.858 250.567h-145.966c-4.266 0-7.724 3.458-7.724 7.724s3.458 7.724 7.724 7.724h145.967c4.266 0 7.724-3.458 7.724-7.724s-3.458-7.724-7.725-7.724z" fill="#ffffff" data-original="#ffffff" style=""/><path d="m442.858 292.063h-84.172c-4.266 0-7.724 3.458-7.724 7.724s3.458 7.724 7.724 7.724h84.172c4.266 0 7.724-3.458 7.724-7.724s-3.457-7.724-7.724-7.724z" fill="#ffffff" data-original="#ffffff" style=""/></g></g><path d="m361.817 366.88h81.041v31.588h-81.041z" fill="#6eff62" data-original="#ff7de9" style="" class=""/><g><g><path d="m103.505 192.592c9.94 0 9.957-15.449 0-15.449-9.94 0-9.957 15.449 0 15.449z" fill="#ffffff" data-original="#ffffff" style=""/></g><g><path d="m103.505 224.519c9.94 0 9.957-15.449 0-15.449-9.94 0-9.957 15.449 0 15.449z" fill="#ffffff" data-original="#ffffff" style=""/></g><g><path d="m138.007 192.592c9.94 0 9.957-15.449 0-15.449-9.94 0-9.957 15.449 0 15.449z" fill="#ffffff" data-original="#ffffff" style=""/></g><g><path d="m172.509 192.592c9.94 0 9.957-15.449 0-15.449-9.941 0-9.957 15.449 0 15.449z" fill="#ffffff" data-original="#ffffff" style=""/></g><g><path d="m138.007 224.519c9.94 0 9.957-15.449 0-15.449-9.94 0-9.957 15.449 0 15.449z" fill="#ffffff" data-original="#ffffff" style=""/></g><g><path d="m103.505 256.446c9.94 0 9.957-15.449 0-15.449-9.94 0-9.957 15.449 0 15.449z" fill="#ffffff" data-original="#ffffff" style=""/></g></g></g><g><path d="m35.451 69.089c10.291 0 10.308-15.449 0-15.449-10.29.001-10.307 15.449 0 15.449z" fill="#ffffff" data-original="#ffffff" style=""/></g><g><path d="m63.087 69.089c10.291 0 10.308-15.449 0-15.449-10.291.001-10.308 15.449 0 15.449z" fill="#ffffff" data-original="#ffffff" style=""/></g><g><path d="m90.723 69.089c10.291 0 10.308-15.449 0-15.449-10.291.001-10.308 15.449 0 15.449z" fill="#ffffff" data-original="#ffffff" style=""/></g></g></g></svg>
